<svg width="800" height="800" viewBox="0 0 800 800" fill="none" xmlns="http://www.w3.org/2000/svg">
<path d="M178.75 228.75C192.5 231.25 198.75 245 192.5 257.5L152.5 352.5C147.5 366.25 133.75 370 122.5 363.75L37.5 311.25C26.25 303.75 21.25 287.5 26.25 273.75L46.25 226.25C51.25 213.75 67.5 205 80 207.5L178.75 228.75Z" fill="#F2994A"/>
<path d="M122.5 435C133.75 427.5 147.5 432.5 153.75 446.25L193.75 541.25C198.75 555 192.5 567.5 180 570L82.5 591.25C68.75 593.75 53.75 586.25 48.75 572.5L28.75 525C23.75 511.25 28.75 495 40 487.5L122.5 435Z" fill="#F2994A"/>
<path d="M228.75 621.25C231.25 607.5 245 601.25 257.5 607.5L352.5 647.5C366.25 652.5 370 666.25 363.75 678.75L310 762.5C302.5 773.75 286.25 778.75 272.5 773.75L225 753.75C212.5 748.75 203.75 732.5 206.25 720L228.75 621.25Z" fill="#F2994A"/>
<path d="M435 677.5C427.5 666.25 432.5 652.5 446.25 646.25L541.25 606.25C555 601.25 567.5 607.5 570 620L591.25 717.5C593.75 731.25 586.25 746.25 572.5 751.25L525 771.25C511.25 776.25 495 771.25 487.5 760L435 677.5Z" fill="#F2994A"/>
<path d="M621.25 571.25C607.5 568.75 601.25 555 607.5 542.5L647.5 447.5C652.5 435 666.25 430 678.75 436.25L763.75 490C775 497.5 780 513.75 775 527.5L755 575C750 587.5 733.75 596.25 721.25 593.75L621.25 571.25Z" fill="#F2994A"/>
<path d="M677.5 365C666.25 372.5 652.5 367.5 646.25 353.75L606.25 258.75C601.25 245 607.5 232.5 620 230L717.5 208.75C731.25 206.25 746.25 213.75 751.25 227.5L771.25 275C776.25 287.5 771.25 305 760 312.5L677.5 365Z" fill="#F2994A"/>
<path d="M571.25 178.75C568.75 192.5 555 198.75 542.5 192.5L447.5 152.5C433.75 147.5 430 133.75 436.25 121.25L488.75 37.5C496.25 26.25 512.5 21.25 526.25 26.25L573.75 46.25C586.25 51.25 595 67.5 592.5 80L571.25 178.75Z" fill="#F2994A"/>
<path d="M365 122.5C372.5 133.75 367.5 147.5 353.75 153.75L258.75 193.75C246.25 198.75 232.5 192.5 230 180L208.75 82.5C206.25 68.75 213.75 53.75 227.5 48.75L275 28.75C288.75 23.75 305 28.75 312.5 40L365 122.5Z" fill="#F2994A"/>
<path d="M400 83.75C225 83.75 83.75 225 83.75 400C83.75 575 225 716.25 400 716.25C575 716.25 716.25 575 716.25 400C716.25 225 575 83.75 400 83.75ZM400 598.75C290 598.75 201.25 510 201.25 400C201.25 290 290 201.25 400 201.25C510 201.25 598.75 290 598.75 400C598.75 510 510 598.75 400 598.75Z" fill="#F2994A"/>
<path d="M400 153.75C263.75 153.75 153.75 263.75 153.75 400C153.75 536.25 263.75 646.25 400 646.25C536.25 646.25 646.25 536.25 646.25 400C646.25 263.75 536.25 153.75 400 153.75ZM400 493.75C348.75 493.75 306.25 451.25 306.25 400C306.25 348.75 348.75 306.25 400 306.25C451.25 306.25 493.75 348.75 493.75 400C493.75 451.25 451.25 493.75 400 493.75Z" fill="#F2C94C"/>
<path d="M400 212.5C296.25 212.5 212.5 296.25 212.5 400C212.5 503.75 296.25 587.5 400 587.5C503.75 587.5 587.5 503.75 587.5 400C587.5 296.25 503.75 212.5 400 212.5ZM400 493.75C348.75 493.75 306.25 451.25 306.25 400C306.25 348.75 348.75 306.25 400 306.25C451.25 306.25 493.75 348.75 493.75 400C493.75 451.25 451.25 493.75 400 493.75Z" fill="#F2994A"/>
<path d="M428.337 540.503C428.337 641.885 385.285 724.072 332.182 724.072C279.079 724.072 236.027 641.885 236.027 540.503C236.027 439.121 279.078 356.933 332.181 356.933C385.284 356.933 428.337 439.12 428.337 540.503Z" fill="#3B5873"/>
<path d="M247.679 427.722C234.943 458.859 227.286 497.933 227.286 540.503C227.286 583.065 234.943 622.148 247.679 653.285C266.517 634.718 279.734 591.212 279.734 540.503C279.733 489.795 266.517 446.289 247.679 427.722Z" fill="#26384A"/>
<path d="M323.895 793.65C240.852 786.719 174.837 676.035 174.837 540.5C174.837 404.895 240.922 294.509 324.034 287.367C320.95 287.131 317.829 287 314.7 287H192.32C95.7627 287 17.4926 400.498 17.4926 540.5C17.4926 680.51 95.7627 794 192.32 794H314.7C322.444 794 330.058 793.196 337.54 791.78C333.039 792.628 328.502 793.301 323.895 793.65Z" fill="#3B5873"/>
<path d="M332.181 724.072C279.077 724.072 236.026 641.885 236.026 540.503C236.026 439.121 279.078 356.933 332.181 356.933C385.284 356.933 428.336 439.12 428.336 540.502C428.336 641.884 385.285 724.072 332.181 724.072ZM489.5 538.929C488.931 404.189 415.889 294.38 324.043 287.369C240.93 294.511 174.837 404.888 174.837 540.502C174.837 676.028 240.852 786.712 323.895 793.652C404.385 787.603 470.461 702.628 486.039 591.08C488.172 574.733 489.369 557.819 489.51 540.503C489.509 539.969 489.5 539.462 489.5 538.929Z" fill="#9DB4C8"/>
<path d="M161.246 355.465C164.183 357.431 168.003 357.431 170.94 355.465L192.942 340.796L223.371 356.006C223.65 356.146 223.956 356.137 224.246 356.242C227.375 351.496 230.618 346.933 233.984 342.597C233.232 341.705 232.305 340.927 231.195 340.368L196.23 322.885C193.424 321.487 190.076 321.696 187.471 323.436L166.099 337.684L144.718 323.436C142.585 322.02 139.936 321.609 137.471 322.299L88.8607 336.189C83.3976 342.01 78.1879 348.287 73.2397 354.974C74.7697 356.198 76.666 356.931 78.6771 356.931C79.4723 356.931 80.2853 356.817 81.0893 356.6L138.389 340.227L161.246 355.465Z" fill="#9DB4C8"/>
<path d="M126.281 416.654C129.218 418.621 133.038 418.621 135.975 416.654L157.977 401.986L188.406 417.196C189.665 417.826 191.002 418.123 192.313 418.123C193.065 418.123 193.809 418.009 194.534 417.817C196.089 413.306 197.715 408.866 199.428 404.521C198.615 403.324 197.61 402.257 196.229 401.557L161.264 384.075C158.457 382.676 155.109 382.885 152.505 384.625L131.133 398.874L109.752 384.625C106.815 382.659 102.994 382.659 100.057 384.625L78.684 398.875L57.3019 384.626C56.585 384.145 55.7987 383.927 55.0115 383.683C52.3279 388.613 49.7315 393.647 47.3015 398.867C47.4243 398.954 47.4847 399.086 47.6075 399.173L73.8319 416.655C76.7689 418.622 80.5892 418.622 83.5263 416.655L104.907 402.407L126.281 416.654Z" fill="#9DB4C8"/>
<path d="M124.95 485.493C128.368 488.912 133.893 488.912 137.31 485.493L157.354 465.449L168.657 476.752C171.699 479.794 176.332 479.969 179.74 477.599C180.378 473.569 181.086 469.583 181.839 465.632C181.551 465.221 181.384 464.758 181.017 464.391L163.534 446.908C160.116 443.49 154.591 443.49 151.174 446.908L131.13 466.952L111.085 446.908C107.667 443.49 102.143 443.49 98.7254 446.908L78.681 466.952L58.6367 446.908C56.985 445.256 54.6421 444.425 52.4042 444.347C50.0702 444.365 47.8323 445.309 46.2063 446.978L24.5628 469.129C23.4349 474.706 22.4387 480.37 21.5732 486.104C23.1378 487.319 24.9559 488.054 26.8353 488.054C29.1079 488.054 31.3805 487.171 33.0946 485.423L52.527 465.527L72.501 485.492C75.9193 488.911 81.4438 488.911 84.8611 485.492L104.905 465.448L124.95 485.493Z" fill="#9DB4C8"/>
<path d="M174.837 540.503C174.837 540.022 174.855 539.541 174.863 539.06L135.631 515.528C132.187 513.466 127.791 514.016 124.95 516.839L104.905 536.884L84.8611 516.839C81.4428 513.421 75.9183 513.421 72.501 516.839L50.7347 538.606L21.399 523.937C20.2889 523.387 19.1175 523.107 17.946 523.046C17.6747 528.824 17.4915 534.629 17.4915 540.503C17.4915 540.853 17.5093 541.193 17.5093 541.543L48.5502 557.068C51.9239 558.764 55.9889 558.091 58.6377 555.424L78.6821 535.38L98.7264 555.424C102.145 558.842 107.669 558.842 111.086 555.424L132.485 534.025L170.335 556.735C171.742 557.583 173.299 557.985 174.828 557.985C174.967 557.985 175.107 557.941 175.248 557.932C175.002 552.164 174.837 546.368 174.837 540.503Z" fill="#9DB4C8"/>
<path d="M178.765 596.721L162.2 585.68C158.722 583.355 154.114 583.828 151.177 586.773L131.133 606.817L111.088 586.773C107.67 583.354 102.138 583.354 98.7283 586.773L78.685 606.816L58.6407 586.772C56.788 584.919 54.2173 584.001 51.5952 584.255C48.9899 584.508 46.639 585.924 45.1874 588.101L27.7048 614.325C26.463 616.187 26.1135 618.337 26.4026 620.382C26.4897 620.766 26.5779 621.152 26.6739 621.536C27.2156 623.468 28.3256 625.251 30.1269 626.448C31.6132 627.437 33.2996 627.917 34.9691 627.917C37.7923 627.917 40.5639 626.553 42.2503 624.027L53.8153 606.667L72.504 625.355C75.9133 628.773 81.4468 628.773 84.8641 625.355L104.908 605.311L124.953 625.355C128.362 628.773 133.896 628.773 137.313 625.355L158.467 604.201L178.729 617.707C179.919 618.493 181.239 618.86 182.575 619.009C181.099 611.721 179.832 604.281 178.765 596.721Z" fill="#9DB4C8"/>
<path d="M204.362 688.355C201.459 681.851 198.741 675.12 196.215 668.171L170.008 655.059C166.057 653.102 161.267 654.369 158.82 658.031L147.255 675.392L128.566 656.703C125.157 653.285 119.623 653.285 116.206 656.703L96.1617 676.746L76.1174 656.702C72.708 653.284 67.1746 653.284 63.7573 656.702L46.2747 674.185C45.6102 674.849 45.1904 675.635 44.7794 676.431C46.6242 680.618 48.5383 684.719 50.5317 688.73C53.3638 689.377 56.4325 688.748 58.6348 686.545L69.9373 675.242L89.9816 695.287C93.3999 698.705 98.9324 698.705 102.342 695.287L122.386 675.242L142.43 695.287C144.082 696.93 146.303 697.847 148.61 697.847C148.899 697.847 149.188 697.829 149.476 697.804C152.081 697.55 154.432 696.134 155.884 693.958L169.091 674.15L197.152 688.18C199.51 689.36 202.107 689.282 204.362 688.355Z" fill="#9DB4C8"/>
<path d="M205.909 757.568L232.134 740.086C232.833 739.622 233.323 738.985 233.838 738.373C230.508 734.063 227.29 729.544 224.187 724.823C223.602 725.051 222.981 725.173 222.438 725.54L201.057 739.789L179.685 725.54C176.748 723.574 172.928 723.574 169.991 725.54L148.609 739.789L127.237 725.54C124.3 723.574 120.48 723.574 117.543 725.54L91.3184 743.023C90.4441 743.608 89.7717 744.361 89.1855 745.156C93.189 749.404 97.3064 753.451 101.554 757.201L122.385 743.32L143.766 757.568C146.703 759.535 150.524 759.535 153.461 757.568L174.833 743.32L196.214 757.568C199.152 759.535 202.972 759.535 205.909 757.568Z" fill="#9DB4C8"/>
</svg>
